<?xml version="1.0"?>
<svg xmlns="http://www.w3.org/2000/svg"
     xmlns:xlink="http://www.w3.org/1999/xlink"
     version="1.1"
     viewBox="-2 -373 1893 746">
  <defs>
    <symbol id="t" width="123.874" height="200.272" overflow="visible">
      <path d="m 43.2764,61.666 0.268,126.7578 c 0,4.5654 2.2827,6.8481 6.8482,6.8481 4.5654,0 6.8481,-2.2827 6.8481,-6.8481 l 0.269,-126.4893 54.5166,-0.269 c 4.5654,0 6.8481,-2.2827 6.8481,-6.8482 0,-4.6549 -2.2827,-6.9824 -6.8481,-6.9824 L 57.5097,47.5659 57.2407,11.8482 C 57.2407,7.2827 54.958,5 50.3926,5 45.8271,5 43.5444,7.2827 43.5444,11.8482 l -0.268,35.7177 -31.4283,0.269 C 7.2827,47.8349 5,50.1624 5,54.8173 c 0,4.5655 2.2827,6.8482 6.8481,6.8482 l 31.4283,0.269 0,-0.269 z" />
    </symbol>
    <symbol id="n" width="109.509" height="154.080" overflow="visible">
      <path d="M 104.4994,59.5163 Q 104.2304,37.4948 89.9974,21.5158 75.3612,5.2682 54.6825,5.2682 q -20.813,0 -35.4492,16.2476 -0.269,0.537 -0.537,0.806 l 0,-10.4737 Q 18.6963,5 11.8481,5 5,5 5,11.8481 l 0,130.3833 q 0,6.8482 6.8481,6.8482 6.8482,0 6.8482,-6.8482 l 0,-84.4604 q 0.806,-15.5762 10.7421,-26.5869 10.7422,-12.2193 25.2442,-12.2193 14.6362,0 25.3784,12.2193 10.2051,11.5478 10.4736,29.1382 l 0,81.9091 q 0,6.8482 6.8482,6.8482 6.8481,0 6.8481,-6.8482 l 0.269,-82.7148 z" />
    </symbol>
    <symbol id="e" width="147.314" height="154.348" overflow="visible">
      <path d="m 142.2314,98.4578 q -0.5371,-6.3111 -6.98242,-6.3111 -7.65381,0 -6.84814,7.3853 0.8057,8.5937 -14.2334,21.2158 -17.590336,14.9048 -39.343261,14.9048 -23.095704,0 -39.611817,-16.5161 -16.516113,-16.5161 -16.516113,-39.6119 0,-10.7421 3.356933,-20.4101 l 110.778808,0.269 0,-0.269 q 2.14844,0 3.62549,-1.0742 l 0.2686,-0.269 q 1.07422,-0.806 1.61133,-2.0141 0.5371,-1.2085 0.5371,-3.2227 l 0,-0.806 q -0.2686,-2.1484 -1.07422,-3.894 Q 121.82129,5 75.092773,5 46.223144,5 25.544433,27.8272 5,50.3858 5,79.5239 q 0,28.8697 20.275879,49.5484 20.678711,20.2759 49.54834,20.2759 26.049801,0 48.071281,-18.1275 20.67872,-17.0532 19.33594,-32.7636 z m -20.67871,-53.3082 -92.382808,0.269 q 2.685547,-4.1626 6.311035,-8.1909 17.053222,-18.5303 39.611816,-18.5303 21.752931,0 34.374997,9.9365 7.1167,6.0425 12.08496,16.5161 z" />
    </symbol>
    <symbol id="M" width="290.391" height="440.049" overflow="visible">
      <path d="m 7.50041,420.0968 q 0,12.4512 12.45117,12.4512 12.45117,0 12.45117,-12.4512 l 0,-341.0644 101.07422,227.5391 q 3.90625,9.5214 11.47461,9.5214 7.56836,0 11.47461,-9.5214 l 101.5625,-227.5391 0,341.0644 q 0,12.4512 12.45117,12.4512 12.45117,0 12.45117,-12.4512 l 0,-399.9023 0,-0.488 0,-1.2207 q -0.4883,-3.4179 -1.46484,-5.3711 l -0.4883,-0.976 q -0.4883,-0.488 -0.9766,-0.977 l -0.4883,-0.488 q -0.4883,-0.488 -0.9766,-0.976 l -0.9766,0 Q 277.03149,9.2097 276.54319,8.477 273.85765,7.5 270.43968,7.5 l -1.95313,0 q -0.4883,0 -0.9766,0.488 -8.05664,1.2207 -9.52148,9.0332 L 144.95136,271.1716 31.91425,17.0212 Q 30.93765,9.2087 22.88105,7.988 21.90445,7.5 20.43964,7.5 l -0.4883,0 -1.46485,0 q -2.4414,0.488 -4.63867,0.977 l -0.9766,0.732 -0.9766,0.488 q -0.4883,0.488 -0.9766,0.976 l -0.4883,0.488 q -0.4883,0.488 -0.9766,0.977 l 0,0.488 Q 7.98828,15.0675 7.5,18.4854 l 0,1.709 0,1.4648 0,398.4375 z" />
    </symbol>
    <symbol id="S" width="306.504" height="440.049" overflow="visible">
      <path id="Spath" d="m 256.5234,124.1992 q 0,-37.1094 -32.7148,-64.209 -32.4707,-27.3437 -79.3457,-27.3437 -47.1191,0 -79.5898,27.3437 -32.4707,27.0996 -32.4707,64.209 0,36.8652 32.4707,64.209 32.4707,27.0996 79.5898,27.0996 59.5703,0 105.4688,30.0293 49.0722,31.9824 49.0722,78.6133 0,46.3867 -43.7012,77.3926 -43.457,31.0058 -101.8066,31.0058 -59.082,0 -101.5625,-30.0293 Q 7.5,371.0254 7.5,324.6387 q 0,-12.4512 12.4512,-12.4512 12.4512,0 12.4512,12.4512 0,32.9589 34.4238,58.1054 34.668,24.9024 86.6699,24.9024 51.5137,0 86.4258,-26.1231 33.9355,-24.414 33.9355,-57.373 0,-31.9824 -38.33,-57.6172 -38.086,-25.8789 -91.0645,-25.8789 -55.9082,0 -96.4355,-33.6914 Q 7.5,173.0273 7.5,124.1992 7.5,75.1269 48.0274,41.4355 88.5547,7.5 144.4629,7.5 q 55.9082,0 96.4355,33.9355 40.5274,33.6914 40.5274,82.7637 0,12.4512 -12.4512,12.4512 -12.4512,0 -12.4512,-12.4512 z" />
    </symbol>
    <symbol id="L" width="284.531" height="440.049" overflow="visible">
      <path id="Lpath" d="M 32.40234,20.195602 Q 32.40234,7.5003023 19.95117,7.5003023 7.5,7.5003023 7.5,20.195602 l 0,398.437498 0,1.4648 q 0,4.3946 1.95312,7.5684 l 0.4883,0.977 0.4883,0.488 0.4883,0.488 q 0.9766,0.977 1.95313,1.4649 3.17383,1.4648 7.08008,1.4648 l 1.46484,0 242.91992,0 q 12.69532,0 12.69532,-12.4512 0,-12.4511 -12.69532,-12.4511 l -231.93359,0 0,-387.451198 z" />
    </symbol>
    <mask id="clip">
      <rect x="-2" y="-373" width="100%" height="100%" fill="white"/>
      <use xlink:href="#Spath" transform="translate(1385,-220)" fill="black" stroke="black" />
      <use xlink:href="#Lpath" transform="translate(177,-220)" fill="black" stroke="black" />
    </mask>
  </defs>
  <style>
    /* <![CDATA[ */
    #terpinene, #eeent { fill: #000080; stroke: #000080 }
    #LMS { fill: #ff9b27; stroke: #ff9b27 }
    
    #terpinene { fill: none; stroke-width: 20 }
    #LMS { stroke-width: 15 }
    #clip * { stroke-width: 30 }
    #eeent { stroke-width: 10 }
    
    @media screen and (max-width: 100px) {
      #terpinene { stroke-width: 20 }
      #LMS { stroke-width: 30 }
      #clip * { stroke-width: 60 }
      #eeent { display: none }
    }

    @media screen and (min-width: 500px) {
      #terpinene { stroke-width: 10 }
      #LMS { stroke-width: 5 }
      #clip * { stroke-width: 15 }
      #eeent { stroke-width: 5 }
    }
    /* ]]> */
  </style>
  <path id="terpinene" mask="url(#clip)"
	d="m 0,0 418,0 209,362 418,0 209,-362 -209,-362 -418,0 -209,362 m 836,0 418,0 209,362 m -209,-362 209,-362 M 418,0 m 60,0 179,310.03 M 1254,0 m -60,0 -179,310.03" />
  <g id="eeent" style="stroke-width:5">
    <use xlink:href="#e" height="154" x="5" y="66" />
    <use xlink:href="#e" height="154" x="528" y="-200" />
    <use xlink:href="#e" height="154" x="1144" y="-200" transform="translate(-147,0)" />
    <use xlink:href="#n" height="154" x="1250" y="-200" />
    <use xlink:href="#t" height="200" x="1250" y="20" />
  </g>
  <g id="LMS">
    <use xlink:href="#L" height="440" x="177" y="-220" />
    <use xlink:href="#M" height="440" x="836" y="-220" transform="translate(-145,0)" />
    <use xlink:href="#S" height="440" x="1385" y="-220" />
  </g>
</svg>
