<?xml version="1.0" encoding="UTF-8" standalone="no"?>
<!-- Creator: CorelDRAW -->
<svg
   xmlns:dc="http://purl.org/dc/elements/1.1/"
   xmlns:cc="http://creativecommons.org/ns#"
   xmlns:rdf="http://www.w3.org/1999/02/22-rdf-syntax-ns#"
   xmlns:svg="http://www.w3.org/2000/svg"
   xmlns="http://www.w3.org/2000/svg"
   xmlns:sodipodi="http://sodipodi.sourceforge.net/DTD/sodipodi-0.dtd"
   xmlns:inkscape="http://www.inkscape.org/namespaces/inkscape"
   xml:space="preserve"
   width="8.5in"
   height="11in"
   style="shape-rendering:geometricPrecision; text-rendering:geometricPrecision; image-rendering:optimizeQuality; fill-rule:evenodd"
   viewBox="0 0 8500 11000"
   id="svg2"
   sodipodi:version="0.32"
   inkscape:version="0.46"
   sodipodi:docname="Symbol_thumbs_up.svg"
   inkscape:output_extension="org.inkscape.output.svg.inkscape"><metadata
   id="metadata12"><rdf:RDF><cc:Work
       rdf:about=""><dc:format>image/svg+xml</dc:format><dc:type
         rdf:resource="http://purl.org/dc/dcmitype/StillImage" /></cc:Work></rdf:RDF></metadata><sodipodi:namedview
   inkscape:window-height="810"
   inkscape:window-width="948"
   inkscape:pageshadow="2"
   inkscape:pageopacity="0.0"
   guidetolerance="10.0"
   gridtolerance="10.0"
   objecttolerance="10.0"
   borderopacity="1.0"
   bordercolor="#666666"
   pagecolor="#ffffff"
   id="base"
   showgrid="false"
   inkscape:zoom="0.55100246"
   inkscape:cx="184.72191"
   inkscape:cy="481.657"
   inkscape:window-x="7"
   inkscape:window-y="26"
   inkscape:current-layer="svg2" />
 <defs
   id="defs4"><inkscape:perspective
   sodipodi:type="inkscape:persp3d"
   inkscape:vp_x="0 : 495 : 1"
   inkscape:vp_y="0 : 1000 : 0"
   inkscape:vp_z="765 : 495 : 1"
   inkscape:persp3d-origin="382.5 : 330 : 1"
   id="perspective14" />
  <style
   type="text/css"
   id="style6">
   
    .str0 {stroke:#000000;stroke-width:3}
    .fil0 {fill:#000000}
   
  </style>
 
  
 </defs>
 
<g
   id="g3164"><path
     class="fil0 str0"
     d="M 7628.0501,8900.3379 L 6553.5608,8900.3379 C 6060.4148,9478.9953 5524.5928,9902.8279 4948.9396,10170.868 C 4767.8033,10186.351 4632.1882,10194.092 4545.8876,10194.092 C 4300.263,10194.092 4022.3942,10148.612 3710.3845,10060.556 L 3452.4312,10194.092 L 3143.2666,10194.092 C 2437.6885,10194.092 2083.9511,9935.7282 2083.9511,9421.9037 C 2083.9511,9391.9064 2088.6929,9349.3296 2098.1764,9288.3674 C 1580.3731,9245.7906 1319.5748,8993.2327 1319.5748,8533.5969 C 1319.5748,8484.2465 1324.3166,8416.5107 1333.8001,8328.4541 C 1142.2319,8273.2978 997.13317,8185.2413 899.45225,8062.3491 C 800.82305,7942.36 751.50845,7786.5676 751.50845,7600.7779 C 751.50845,7450.7915 803.66812,7287.2579 908.93583,7116.9507 C 650.98253,6833.4279 521.05753,6517.9726 521.05753,6169.617 C 521.05753,5768.0404 734.43801,5444.8438 1162.1474,5199.0595 C 1589.8567,4956.1783 2155.0779,4833.2861 2860.656,4833.2861 L 3039.8956,4833.2861 C 2982.9942,4392.0357 2850.2241,3965.3001 2644.4305,3554.0469 L 2528.7308,3348.9042 C 2280.2611,2864.1093 2155.0779,2488.6593 2155.0779,2225.4573 C 2155.0779,1495.8458 2530.6275,1039.1129 3285.5203,858.16147 L 3494.1589,805.90813 L 3855.4832,2438.3413 L 5187.9258,3884.9847 C 5278.9681,3993.3621 5435.4471,4201.4078 5662.1046,4509.1219 L 5863.1565,4780.0651 C 6079.382,5079.0704 6232.0676,5261.9571 6320.2649,5326.7899 C 6409.4105,5394.5257 6551.6641,5427.426 6747.9742,5427.426 L 7591.0642,5427.426 C 7849.0174,5988.6656 7978.9425,6568.2906 7978.9425,7159.5275 C 7978.9425,7736.2496 7861.3461,8318.7776 7628.0501,8900.3379 z"
     id="path2389"
     style="fill:#438405;fill-rule:evenodd;stroke:none;stroke-width:3;fill-opacity:1"
     sodipodi:nodetypes="cccscccscsccscscccccscccccccccsc" /><g
     transform="translate(85,370)"
     style="fill:#244802;fill-rule:evenodd;stroke:none;fill-opacity:1"
     id="Layer 1">
  <path
   style="fill:#244802;stroke:none;stroke-width:3;fill-opacity:1"
   id="path9"
   d="M 7727,8644 L 6594,8644 C 6074,9242 5509,9680 4902,9957 C 4711,9973 4568,9981 4477,9981 C 4218,9981 3925,9934 3596,9843 L 3324,9981 L 2998,9981 C 2254,9981 1881,9714 1881,9183 C 1881,9152 1886,9108 1896,9045 C 1350,9001 1075,8740 1075,8265 C 1075,8214 1080,8144 1090,8053 C 888,7996 735,7905 632,7778 C 528,7654 476,7493 476,7301 C 476,7146 531,6977 642,6801 C 370,6508 233,6182 233,5822 C 233,5407 458,5073 909,4819 C 1360,4568 1956,4441 2700,4441 L 2889,4441 C 2829,3985 2689,3544 2472,3119 L 2350,2907 C 2088,2406 1956,2018 1956,1746 C 1956,992 2352,520 3148,333 L 3368,279 L 3749,1966 L 5154,3461 C 5250,3573 5415,3788 5654,4106 L 5866,4386 C 6094,4695 6255,4884 6348,4951 C 6442,5021 6592,5055 6799,5055 L 7688,5055 C 7960,5635 8097,6234 8097,6845 C 8097,7441 7973,8043 7727,8644 z M 7475,8250 C 7634,7789 7711,7348 7711,6928 C 7711,6433 7626,5946 7452,5464 C 6815,5464 6416,5425 6255,5350 C 6092,5275 5848,5008 5524,4552 C 5395,4376 5198,4124 4941,3803 L 3415,2178 L 3112,771 C 2604,945 2350,1269 2350,1746 C 2350,1992 2435,2261 2609,2549 L 2707,2717 C 3104,3376 3301,4003 3301,4601 L 3309,4814 L 3034,4814 C 2231,4814 1624,4894 1220,5052 C 813,5213 611,5454 611,5778 C 611,6071 717,6319 927,6521 C 1137,6724 1394,6825 1697,6825 L 2161,6830 L 3537,6210 C 3329,5897 3050,5739 2700,5739 C 2609,5739 2492,5760 2352,5798 C 2210,5840 2044,5902 1850,5982 L 1492,5998 L 1135,5617 L 1751,5609 C 1930,5534 2091,5477 2238,5443 C 2384,5407 2518,5389 2640,5389 C 3288,5389 3762,5718 4060,6376 L 3801,6498 C 4120,6654 4366,6928 4539,7317 L 4241,7444 C 4475,7592 4690,7843 4887,8195 L 4418,8416 C 4674,8605 4882,8869 5040,9214 L 4107,9631 C 4257,9662 4387,9678 4493,9678 L 4788,9670 C 5462,9281 6009,8807 6429,8250 L 7475,8250 z M 4013,7149 C 3837,6913 3625,6760 3376,6695 L 2244,7203 L 1842,7203 C 1461,7203 1173,7149 976,7042 C 912,7133 878,7221 878,7301 C 878,7457 956,7573 1109,7654 C 1264,7732 1495,7770 1803,7770 L 2609,7770 L 4013,7149 z M 4332,8037 C 4309,8006 4288,7980 4273,7960 C 4151,7820 4006,7708 3840,7628 L 2676,8144 L 1448,8136 L 1425,8234 C 1425,8532 1720,8683 2314,8683 L 2884,8683 L 4332,8037 z M 4493,9061 C 4457,9017 4431,8981 4410,8955 C 4314,8817 4192,8696 4045,8584 L 2959,9069 L 2259,9069 L 2259,9115 C 2259,9455 2505,9623 2998,9623 L 3246,9623 L 4493,9061 z"
   class="fil0 str0" />
 </g></g></svg>